<svg width="140" height="140" viewBox="0 0 140 140" fill="none" xmlns="http://www.w3.org/2000/svg">
<g filter="url(#filter0_d_28_4259)">
<circle cx="70" cy="66" r="30" fill="#00BB98"/>
</g>
<path fill-rule="evenodd" clip-rule="evenodd" d="M69.999 57.0002C68.8945 57.0002 67.999 57.8957 67.999 59.0002C67.999 60.1048 68.8945 61.0002 69.999 61.0002C71.1036 61.0002 71.999 60.1048 71.999 59.0002C71.999 57.8957 71.1036 57.0002 69.999 57.0002ZM73.999 59.0002C73.999 60.8641 72.7243 62.4302 70.999 62.8742V74.9448C73.0182 74.7192 74.9128 73.815 76.3633 72.3644C77.8138 70.914 78.718 69.0195 78.9437 67.0005H76.9994C76.4471 67.0005 75.9994 66.5528 75.9994 66.0005C75.9994 65.4482 76.4471 65.0005 76.9994 65.0005H79.9994C80.5517 65.0005 80.9994 65.4482 80.9994 66.0005C80.9994 68.9179 79.8405 71.7158 77.7776 73.7787C75.7147 75.8416 72.9168 77.0005 69.9994 77.0005C67.082 77.0005 64.2841 75.8416 62.2212 73.7787C60.1583 71.7158 58.9994 68.9179 58.9994 66.0005C58.9994 65.7353 59.1047 65.4809 59.2923 65.2934C59.4798 65.1058 59.7342 65.0005 59.9994 65.0005H62.9994C63.5517 65.0005 63.9994 65.4482 63.9994 66.0005C63.9994 66.5528 63.5517 67.0005 62.9994 67.0005H61.0551C61.2808 69.0195 62.185 70.914 63.6354 72.3644C65.0858 73.8148 66.9801 74.719 68.999 74.9447V62.8742C67.2738 62.4302 65.999 60.8641 65.999 59.0002C65.999 56.7911 67.7899 55.0002 69.999 55.0002C72.2082 55.0002 73.999 56.7911 73.999 59.0002Z" fill="white"/>
<defs>
<filter id="filter0_d_28_4259" x="0" y="0" width="140" height="140" filterUnits="userSpaceOnUse" color-interpolation-filters="sRGB">
<feFlood flood-opacity="0" result="BackgroundImageFix"/>
<feColorMatrix in="SourceAlpha" type="matrix" values="0 0 0 0 0 0 0 0 0 0 0 0 0 0 0 0 0 0 127 0" result="hardAlpha"/>
<feOffset dy="4"/>
<feGaussianBlur stdDeviation="20"/>
<feColorMatrix type="matrix" values="0 0 0 0 0.168627 0 0 0 0 0.34902 0 0 0 0 1 0 0 0 0.08 0"/>
<feBlend mode="normal" in2="BackgroundImageFix" result="effect1_dropShadow_28_4259"/>
<feBlend mode="normal" in="SourceGraphic" in2="effect1_dropShadow_28_4259" result="shape"/>
</filter>
</defs>
</svg>
