<svg width="60" height="60" viewBox="0 0 60 60" fill="none" xmlns="http://www.w3.org/2000/svg">
<rect width="60" height="60" rx="30" fill="#00BB98"/>
<path fill-rule="evenodd" clip-rule="evenodd" d="M29.9996 20.9999C28.8951 20.9999 27.9996 21.8953 27.9996 22.9999C27.9996 24.1044 28.8951 24.9999 29.9996 24.9999C31.1042 24.9999 31.9996 24.1044 31.9996 22.9999C31.9996 21.8953 31.1042 20.9999 29.9996 20.9999ZM33.9996 22.9999C33.9996 24.8637 32.7249 26.4298 30.9996 26.8739V38.9445C33.0188 38.7189 34.9134 37.8146 36.364 36.3641C37.8144 34.9137 38.7186 33.0191 38.9443 31.0001H37C36.4477 31.0001 36 30.5524 36 30.0001C36 29.4478 36.4477 29.0001 37 29.0001H40C40.5523 29.0001 41 29.4478 41 30.0001C41 32.9175 39.8411 35.7154 37.7782 37.7783C35.7153 39.8412 32.9174 41.0001 30 41.0001C27.0826 41.0001 24.2847 39.8412 22.2218 37.7783C20.1589 35.7154 19 32.9175 19 30.0001C19 29.7349 19.1054 29.4806 19.2929 29.293C19.4804 29.1055 19.7348 29.0001 20 29.0001H23C23.5523 29.0001 24 29.4478 24 30.0001C24 30.5524 23.5523 31.0001 23 31.0001H21.0557C21.2814 33.0191 22.1856 34.9137 23.636 36.3641C25.0864 37.8144 26.9808 38.7186 28.9996 38.9444V26.8739C27.2744 26.4298 25.9996 24.8637 25.9996 22.9999C25.9996 20.7907 27.7905 18.9999 29.9996 18.9999C32.2088 18.9999 33.9996 20.7907 33.9996 22.9999Z" fill="white"/>
</svg>
